<svg width="36" height="36" viewBox="0 0 36 36" fill="none" xmlns="http://www.w3.org/2000/svg">
<g id="Frame">
<path id="Vector" d="M16.5435 3.80997C16.9891 3.56253 17.4903 3.43268 18 3.43268C18.5097 3.43268 19.0109 3.56253 19.4565 3.80997L30.729 10.071C30.9627 10.2009 31.1574 10.391 31.293 10.6215C31.4285 10.852 31.5 11.1146 31.5 11.382V23.7345C31.4999 24.2694 31.3567 24.7946 31.0853 25.2557C30.8139 25.7167 30.4242 26.0967 29.9565 26.3565L19.4565 32.1915C19.0109 32.4389 18.5097 32.5688 18 32.5688C17.4903 32.5688 16.9891 32.4389 16.5435 32.1915L6.0435 26.3565C5.57603 26.0969 5.18645 25.717 4.91507 25.2563C4.6437 24.7956 4.50039 24.2707 4.5 23.736V11.382C4.49999 11.1146 4.57146 10.852 4.70702 10.6215C4.84258 10.391 5.0373 10.2009 5.271 10.071L16.545 3.80997H16.5435Z" stroke="#5E3BEE" stroke-width="2" stroke-linecap="round" stroke-linejoin="round"/>
<path id="Vector_2" d="M18 18V32.25M4.5 10.5L18 18L4.5 10.5ZM18 18L31.5 10.5L18 18Z" stroke="#5E3BEE" stroke-width="2" stroke-linecap="round" stroke-linejoin="round"/>
<path id="Vector_3" d="M11.25 14.25L24.75 6.75" stroke="#5E3BEE" stroke-width="2" stroke-linecap="round" stroke-linejoin="round"/>
<path id="Vector_4" d="M9 18.492L13.5 21" stroke="#5E3BEE" stroke-width="2" stroke-linecap="round" stroke-linejoin="round"/>
</g>
</svg>
