<svg width="36" height="36" viewBox="0 0 36 36" fill="none" xmlns="http://www.w3.org/2000/svg">
<g id="Frame">
<path id="Vector" d="M16.125 4.50004C16.6571 4.07403 17.3184 3.84192 18 3.84192C18.6816 3.84192 19.3429 4.07403 19.875 4.50004L31.32 13.6545C31.8102 14.0466 32.165 14.5826 32.3345 15.187C32.5041 15.7914 32.4797 16.4337 32.265 17.0235L27.7185 29.5245C27.5081 30.1035 27.1246 30.6037 26.6201 30.9571C26.1156 31.3106 25.5145 31.5001 24.8985 31.5H11.1015C10.4855 31.5001 9.8844 31.3106 9.37988 30.9571C8.87535 30.6037 8.49186 30.1035 8.2815 29.5245L3.7365 17.0235C3.52176 16.4337 3.49744 15.7914 3.66696 15.187C3.83649 14.5826 4.19132 14.0466 4.6815 13.6545L16.125 4.50004Z" stroke="#5E3BEE" stroke-width="2" stroke-linecap="round" stroke-linejoin="round"/>
</g>
</svg>
